<?xml version="1.0" encoding="UTF-8" standalone="no"?>
<!-- Created with Inkscape (http://www.inkscape.org/) -->

<svg
   xmlns:dc="http://purl.org/dc/elements/1.1/"
   xmlns:cc="http://creativecommons.org/ns#"
   xmlns:rdf="http://www.w3.org/1999/02/22-rdf-syntax-ns#"
   xmlns:svg="http://www.w3.org/2000/svg"
   xmlns="http://www.w3.org/2000/svg"
   xmlns:sodipodi="http://sodipodi.sourceforge.net/DTD/sodipodi-0.dtd"
   xmlns:inkscape="http://www.inkscape.org/namespaces/inkscape"
   width="54.792427mm"
   height="17.930401mm"
   viewBox="0 0 54.792427 17.930401"
   version="1.1"
   id="svg1438"
   inkscape:version="0.92.2 (5c3e80d, 2017-08-06)">
  <defs
     id="defs1432" />
  <sodipodi:namedview
     id="base"
     pagecolor="#ffffff"
     bordercolor="#666666"
     borderopacity="1.0"
     inkscape:pageopacity="0.0"
     inkscape:pageshadow="2"
     inkscape:zoom="0.35"
     inkscape:cx="-446.45527"
     inkscape:cy="8.169923"
     inkscape:document-units="mm"
     inkscape:current-layer="layer1"
     showgrid="false"
     fit-margin-top="0"
     fit-margin-left="0"
     fit-margin-right="0"
     fit-margin-bottom="0"
     inkscape:window-width="1920"
     inkscape:window-height="1015"
     inkscape:window-x="0"
     inkscape:window-y="0"
     inkscape:window-maximized="1" />
  <metadata
     id="metadata1435">
    <rdf:RDF>
      <cc:Work
         rdf:about="">
        <dc:format>image/svg+xml</dc:format>
        <dc:type
           rdf:resource="http://purl.org/dc/dcmitype/StillImage" />
        <dc:title></dc:title>
      </cc:Work>
    </rdf:RDF>
  </metadata>
  <g
     inkscape:label="Capa 1"
     inkscape:groupmode="layer"
     id="layer1"
     transform="translate(-73.901408,-133.06456)">
    <g
       id="g784"
       transform="matrix(0.35277777,0,0,-0.35277777,106.91369,141.65735)"
       inkscape:export-xdpi="96"
       inkscape:export-ydpi="96">
      <path
         d="m 0,0 c -0.07,0 -0.141,0.002 -0.211,0.008 -1.513,0.115 -2.646,1.434 -2.531,2.947 0.279,3.672 1.439,8.036 3.103,11.673 1.402,3.061 3.744,6.899 6.947,7.786 7.546,2.092 14.858,2.504 21.146,1.193 6.505,-1.355 11.933,-4.566 15.772,-9.315 1.575,-0.256 4.528,-0.819 7.514,-1.827 6.635,-2.242 9.999,-5.512 9.999,-9.719 C 61.739,1.229 60.51,0 58.993,0 c -1.517,0 -2.747,1.229 -2.747,2.746 0,2.936 -8.191,5.568 -13.852,6.266 -0.751,0.092 -1.43,0.489 -1.878,1.098 -3.095,4.21 -7.531,6.943 -13.182,8.12 C 21.898,19.362 15.481,18.979 8.774,17.121 8.314,16.993 6.873,15.657 5.356,12.342 3.947,9.264 2.968,5.599 2.735,2.539 2.626,1.097 1.422,0 0,0"
         style="fill:#ffffff;fill-opacity:1;fill-rule:nonzero;stroke:none"
         id="path786"
         inkscape:connector-curvature="0" />
    </g>
    <g
       id="g788"
       transform="matrix(0.35277777,0,0,-0.35277777,73.901408,142.98337)"
       inkscape:export-xdpi="96"
       inkscape:export-ydpi="96">
      <path
         d="m 0,0 c 0,1.528 1.208,2.737 2.736,2.737 h 0.569 c 1.315,0 2.096,-0.64 2.842,-1.599 l 10.557,-13.862 v 12.83 c 0,1.494 1.208,2.702 2.701,2.702 1.492,0 2.7,-1.208 2.7,-2.702 v -19.795 c 0,-1.529 -1.208,-2.738 -2.736,-2.738 h -0.178 c -1.314,0 -2.096,0.641 -2.842,1.6 L 5.401,-6.468 v -13.328 c 0,-1.493 -1.208,-2.701 -2.701,-2.701 -1.492,0 -2.7,1.208 -2.7,2.701 z"
         style="fill:#ffffff;fill-opacity:1;fill-rule:nonzero;stroke:none"
         id="path790"
         inkscape:connector-curvature="0" />
    </g>
    <g
       id="g792"
       transform="matrix(0.35277777,0,0,-0.35277777,86.784678,142.95822)"
       inkscape:export-xdpi="96"
       inkscape:export-ydpi="96">
      <path
         d="M 0,0 C 0,1.528 1.209,2.736 2.736,2.736 4.265,2.736 5.474,1.528 5.474,0 v -19.832 c 0,-1.528 -1.209,-2.736 -2.738,-2.736 -1.527,0 -2.736,1.208 -2.736,2.736 z"
         style="fill:#ffffff;fill-opacity:1;fill-rule:nonzero;stroke:none"
         id="path794"
         inkscape:connector-curvature="0" />
    </g>
    <g
       id="g796"
       transform="matrix(0.35277777,0,0,-0.35277777,97.199908,149.10184)"
       inkscape:export-xdpi="96"
       inkscape:export-ydpi="96">
      <path
         d="m 0,0 c 4.478,0 7.499,3.021 7.499,7.428 v 0.071 c 0,4.407 -3.021,7.499 -7.499,7.499 H -4.229 V 0 Z m -9.703,17.202 c 0,1.527 1.208,2.736 2.736,2.736 H 0 c 7.818,0 13.221,-5.367 13.221,-12.368 V 7.499 C 13.221,0.497 7.818,-4.94 0,-4.94 h -6.967 c -1.528,0 -2.736,1.209 -2.736,2.736 z"
         style="fill:#ffffff;fill-opacity:1;fill-rule:nonzero;stroke:none"
         id="path798"
         inkscape:connector-curvature="0" />
    </g>
    <g
       id="g800"
       transform="matrix(0.35277777,0,0,-0.35277777,113.25818,146.48152)"
       inkscape:export-xdpi="96"
       inkscape:export-ydpi="96">
      <path
         d="m 0,0 v 0.071 c 0,4.265 -3.128,7.819 -7.535,7.819 -4.407,0 -7.464,-3.483 -7.464,-7.747 V 0.071 c 0,-4.265 3.128,-7.819 7.535,-7.819 C -3.057,-7.748 0,-4.265 0,0 m -20.721,0 v 0.071 c 0,7.073 5.58,12.866 13.257,12.866 7.677,0 13.186,-5.722 13.186,-12.794 V 0.071 c 0,-7.072 -5.58,-12.865 -13.257,-12.865 -7.677,0 -13.186,5.721 -13.186,12.794"
         style="fill:#ffffff;fill-opacity:1;fill-rule:nonzero;stroke:none"
         id="path802"
         inkscape:connector-curvature="0" />
    </g>
    <g
       id="g804"
       transform="matrix(0.35277777,0,0,-0.35277777,126.67062,146.48152)"
       inkscape:export-xdpi="96"
       inkscape:export-ydpi="96">
      <path
         d="m 0,0 v 0.071 c 0,4.265 -3.128,7.819 -7.535,7.819 -4.407,0 -7.463,-3.483 -7.463,-7.747 V 0.071 c 0,-4.265 3.127,-7.819 7.534,-7.819 C -3.057,-7.748 0,-4.265 0,0 m -20.721,0 v 0.071 c 0,7.073 5.58,12.866 13.257,12.866 7.677,0 13.186,-5.722 13.186,-12.794 V 0.071 c 0,-7.072 -5.58,-12.865 -13.257,-12.865 -7.677,0 -13.186,5.721 -13.186,12.794"
         style="fill:#ffffff;fill-opacity:1;fill-rule:nonzero;stroke:none"
         id="path806"
         inkscape:connector-curvature="0" />
    </g>
  </g>
</svg>
